<svg width="250" height="250" viewBox="0 0 15 15"><circle cx="5.63" cy="8.14" r="1" stroke="orange" fill-opacity="0" stroke-width="0.5%" />
  <circle cx="4.45" cy="5.19" r="0.1" stroke="orange" fill-opacity="0" stroke-width="0.5%" />
  <circle cx="5.26" cy="3.27" r="0.1" stroke="orange" fill-opacity="0" stroke-width="0.5%" />
  <circle cx="3.99" cy="5.01" r="0.1" stroke="orange" fill-opacity="0" stroke-width="0.5%" />
  <circle cx="8.04" cy="10.95" r="0.1" stroke="orange" fill-opacity="0" stroke-width="0.5%" />
  <circle cx="6.83" cy="10.30" r="0.1" stroke="orange" fill-opacity="0" stroke-width="0.5%" />
  <circle cx="5.89" cy="12.40" r="0.1" stroke="orange" fill-opacity="0" stroke-width="0.5%" />
  <circle cx="3.76" cy="5.10" r="0.1" stroke="orange" fill-opacity="0" stroke-width="0.5%" />
  <circle cx="7.19" cy="11.40" r="0.1" stroke="orange" fill-opacity="0" stroke-width="0.5%" />
  <circle cx="7.92" cy="12.62" r="0.1" stroke="orange" fill-opacity="0" stroke-width="0.5%" />
  <circle cx="6.37" cy="3.97" r="0.1" stroke="orange" fill-opacity="0" stroke-width="0.5%" />
  <circle cx="4.00" cy="5.00" r="0.1" stroke="orange" fill-opacity="0" stroke-width="0.5%" />
  <circle cx="4.83" cy="7.24" r="0.1" stroke="orange" fill-opacity="0" stroke-width="0.5%" />
  <circle cx="3.62" cy="5.74" r="0.1" stroke="orange" fill-opacity="0" stroke-width="0.5%" />
  <circle cx="5.47" cy="6.44" r="0.1" stroke="orange" fill-opacity="0" stroke-width="0.5%" />
  <circle cx="7.55" cy="12.21" r="0.1" stroke="orange" fill-opacity="0" stroke-width="0.5%" />
  <circle cx="7.51" cy="12.74" r="0.1" stroke="orange" fill-opacity="0" stroke-width="0.5%" />
  <circle cx="5.59" cy="11.01" r="0.1" stroke="orange" fill-opacity="0" stroke-width="0.5%" />
  <circle cx="5.67" cy="3.44" r="0.1" stroke="orange" fill-opacity="0" stroke-width="0.5%" />
  <circle cx="5.90" cy="4.38" r="0.1" stroke="orange" fill-opacity="0" stroke-width="0.5%" />
  <circle cx="3.91" cy="3.46" r="0.1" stroke="orange" fill-opacity="0" stroke-width="0.5%" />
  <circle cx="7.70" cy="13.13" r="0.1" stroke="orange" fill-opacity="0" stroke-width="0.5%" />
  <circle cx="3.78" cy="6.07" r="0.1" stroke="orange" fill-opacity="0" stroke-width="0.5%" />
  <circle cx="6.67" cy="12.80" r="0.1" stroke="orange" fill-opacity="0" stroke-width="0.5%" />
  <circle cx="4.98" cy="6.35" r="0.1" stroke="orange" fill-opacity="0" stroke-width="0.5%" />
  <circle cx="5.69" cy="11.02" r="0.1" stroke="orange" fill-opacity="0" stroke-width="0.5%" />
  <circle cx="4.50" cy="2.16" r="0.1" stroke="orange" fill-opacity="0" stroke-width="0.5%" />
  <circle cx="4.11" cy="4.67" r="0.1" stroke="orange" fill-opacity="0" stroke-width="0.5%" />
  <circle cx="7.21" cy="11.38" r="0.1" stroke="orange" fill-opacity="0" stroke-width="0.5%" />
  <circle cx="3.99" cy="4.73" r="0.1" stroke="orange" fill-opacity="0" stroke-width="0.5%" />
  <circle cx="6.49" cy="10.97" r="0.1" stroke="orange" fill-opacity="0" stroke-width="0.5%" />
  <circle cx="6.70" cy="10.74" r="0.1" stroke="orange" fill-opacity="0" stroke-width="0.5%" />
  <circle cx="3.97" cy="5.74" r="0.1" stroke="orange" fill-opacity="0" stroke-width="0.5%" />
  <circle cx="8.06" cy="10.78" r="0.1" stroke="orange" fill-opacity="0" stroke-width="0.5%" />
  <circle cx="5.62" cy="11.51" r="0.1" stroke="orange" fill-opacity="0" stroke-width="0.5%" />
  <circle cx="5.75" cy="12.08" r="0.1" stroke="orange" fill-opacity="0" stroke-width="0.5%" />
  <circle cx="2.72" cy="5.00" r="0.1" stroke="orange" fill-opacity="0" stroke-width="0.5%" />
  <circle cx="4.17" cy="4.63" r="0.1" stroke="orange" fill-opacity="0" stroke-width="0.5%" />
  <circle cx="6.24" cy="13.20" r="0.1" stroke="orange" fill-opacity="0" stroke-width="0.5%" />
  <circle cx="2.63" cy="5.39" r="0.1" stroke="orange" fill-opacity="0" stroke-width="0.5%" />
  <circle cx="1.42" cy="3.72" r="0.1" stroke="orange" fill-opacity="0" stroke-width="0.5%" />
  <circle cx="7.81" cy="11.47" r="0.1" stroke="orange" fill-opacity="0" stroke-width="0.5%" />
  <circle cx="7.86" cy="12.46" r="0.1" stroke="orange" fill-opacity="0" stroke-width="0.5%" />
  <circle cx="8.09" cy="12.29" r="0.1" stroke="orange" fill-opacity="0" stroke-width="0.5%" />
  <circle cx="3.35" cy="6.58" r="0.1" stroke="orange" fill-opacity="0" stroke-width="0.5%" />
  <circle cx="5.16" cy="4.40" r="0.1" stroke="orange" fill-opacity="0" stroke-width="0.5%" />
  <circle cx="5.31" cy="4.82" r="0.1" stroke="orange" fill-opacity="0" stroke-width="0.5%" />
  <circle cx="7.70" cy="9.40" r="0.1" stroke="orange" fill-opacity="0" stroke-width="0.5%" />
  <circle cx="4.32" cy="7.68" r="0.1" stroke="orange" fill-opacity="0" stroke-width="0.5%" />
  <circle cx="3.11" cy="4.31" r="0.1" stroke="orange" fill-opacity="0" stroke-width="0.5%" />
  <circle cx="7.43" cy="10.68" r="0.1" stroke="orange" fill-opacity="0" stroke-width="0.5%" />
  <circle cx="4.48" cy="4.86" r="0.1" stroke="orange" fill-opacity="0" stroke-width="0.5%" />
<circle cx="11.89" cy="8.88" r="1" stroke="purple" fill-opacity="0" stroke-width="0.5%" />
  <circle cx="13.16" cy="7.36" r="0.1" stroke="purple" fill-opacity="0" stroke-width="0.5%" />
  <circle cx="9.95" cy="13.56" r="0.1" stroke="purple" fill-opacity="0" stroke-width="0.5%" />
  <circle cx="13.88" cy="8.19" r="0.1" stroke="purple" fill-opacity="0" stroke-width="0.5%" />
  <circle cx="8.66" cy="11.23" r="0.1" stroke="purple" fill-opacity="0" stroke-width="0.5%" />
  <circle cx="13.52" cy="8.23" r="0.1" stroke="purple" fill-opacity="0" stroke-width="0.5%" />
  <circle cx="9.32" cy="11.97" r="0.1" stroke="purple" fill-opacity="0" stroke-width="0.5%" />
  <circle cx="11.52" cy="8.36" r="0.1" stroke="purple" fill-opacity="0" stroke-width="0.5%" />
  <circle cx="8.83" cy="13.33" r="0.1" stroke="purple" fill-opacity="0" stroke-width="0.5%" />
  <circle cx="12.38" cy="7.80" r="0.1" stroke="purple" fill-opacity="0" stroke-width="0.5%" />
  <circle cx="9.19" cy="11.34" r="0.1" stroke="purple" fill-opacity="0" stroke-width="0.5%" />
<circle cx="11.51" cy="5.58" r="1" stroke="green" fill-opacity="0" stroke-width="0.5%" />
  <circle cx="11.98" cy="6.17" r="0.1" stroke="green" fill-opacity="0" stroke-width="0.5%" />
  <circle cx="11.59" cy="5.73" r="0.1" stroke="green" fill-opacity="0" stroke-width="0.5%" />
  <circle cx="12.29" cy="6.39" r="0.1" stroke="green" fill-opacity="0" stroke-width="0.5%" />
  <circle cx="11.87" cy="5.79" r="0.1" stroke="green" fill-opacity="0" stroke-width="0.5%" />
  <circle cx="12.36" cy="4.99" r="0.1" stroke="green" fill-opacity="0" stroke-width="0.5%" />
  <circle cx="9.30" cy="4.92" r="0.1" stroke="green" fill-opacity="0" stroke-width="0.5%" />
  <circle cx="12.05" cy="5.35" r="0.1" stroke="green" fill-opacity="0" stroke-width="0.5%" />
  <circle cx="12.14" cy="5.71" r="0.1" stroke="green" fill-opacity="0" stroke-width="0.5%" />
  <circle cx="13.87" cy="6.62" r="0.1" stroke="green" fill-opacity="0" stroke-width="0.5%" />
  <circle cx="10.37" cy="3.83" r="0.1" stroke="green" fill-opacity="0" stroke-width="0.5%" />
  <circle cx="12.05" cy="5.95" r="0.1" stroke="green" fill-opacity="0" stroke-width="0.5%" />
  <circle cx="9.04" cy="6.19" r="0.1" stroke="green" fill-opacity="0" stroke-width="0.5%" />
  <circle cx="13.25" cy="6.93" r="0.1" stroke="green" fill-opacity="0" stroke-width="0.5%" />
  <circle cx="10.90" cy="5.59" r="0.1" stroke="green" fill-opacity="0" stroke-width="0.5%" />
  <circle cx="12.92" cy="4.23" r="0.1" stroke="green" fill-opacity="0" stroke-width="0.5%" />
  <circle cx="9.23" cy="6.02" r="0.1" stroke="green" fill-opacity="0" stroke-width="0.5%" />
  <circle cx="10.92" cy="6.29" r="0.1" stroke="green" fill-opacity="0" stroke-width="0.5%" />
  <circle cx="10.99" cy="6.59" r="0.1" stroke="green" fill-opacity="0" stroke-width="0.5%" />
  <circle cx="12.44" cy="6.12" r="0.1" stroke="green" fill-opacity="0" stroke-width="0.5%" />
  <circle cx="10.27" cy="5.43" r="0.1" stroke="green" fill-opacity="0" stroke-width="0.5%" />
  <circle cx="12.02" cy="6.36" r="0.1" stroke="green" fill-opacity="0" stroke-width="0.5%" />
  <circle cx="9.04" cy="6.31" r="0.1" stroke="green" fill-opacity="0" stroke-width="0.5%" />
  <circle cx="12.15" cy="4.00" r="0.1" stroke="green" fill-opacity="0" stroke-width="0.5%" />
  <circle cx="11.23" cy="6.65" r="0.1" stroke="green" fill-opacity="0" stroke-width="0.5%" />
  <circle cx="10.79" cy="7.31" r="0.1" stroke="green" fill-opacity="0" stroke-width="0.5%" />
  <circle cx="13.85" cy="4.87" r="0.1" stroke="green" fill-opacity="0" stroke-width="0.5%" />
  <circle cx="14.66" cy="5.17" r="0.1" stroke="green" fill-opacity="0" stroke-width="0.5%" />
  <circle cx="10.93" cy="5.68" r="0.1" stroke="green" fill-opacity="0" stroke-width="0.5%" />
  <circle cx="12.90" cy="5.77" r="0.1" stroke="green" fill-opacity="0" stroke-width="0.5%" />
  <circle cx="12.21" cy="5.95" r="0.1" stroke="green" fill-opacity="0" stroke-width="0.5%" />
  <circle cx="12.09" cy="5.54" r="0.1" stroke="green" fill-opacity="0" stroke-width="0.5%" />
  <circle cx="10.00" cy="5.04" r="0.1" stroke="green" fill-opacity="0" stroke-width="0.5%" />
  <circle cx="10.58" cy="5.64" r="0.1" stroke="green" fill-opacity="0" stroke-width="0.5%" />
  <circle cx="10.15" cy="6.55" r="0.1" stroke="green" fill-opacity="0" stroke-width="0.5%" />
  <circle cx="12.01" cy="6.28" r="0.1" stroke="green" fill-opacity="0" stroke-width="0.5%" />
  <circle cx="13.01" cy="4.74" r="0.1" stroke="green" fill-opacity="0" stroke-width="0.5%" />
  <circle cx="12.28" cy="5.71" r="0.1" stroke="green" fill-opacity="0" stroke-width="0.5%" />
  <circle cx="10.55" cy="4.18" r="0.1" stroke="green" fill-opacity="0" stroke-width="0.5%" />
  <circle cx="12.01" cy="5.29" r="0.1" stroke="green" fill-opacity="0" stroke-width="0.5%" />
</svg>
